<mxfile host="app.diagrams.net" modified="2021-06-08T17:40:06.253Z" agent="5.0 (Windows NT 10.0; Win64; x64) AppleWebKit/537.36 (KHTML, like Gecko) Chrome/91.0.4472.77 Safari/537.36" etag="mUh2i6T1pcOjq4rIIjHl" version="14.7.6" type="github">
  <diagram id="ma5SRapqaq8zgGtTEMoC" name="Page-1">
    <mxGraphModel dx="1116" dy="656" grid="1" gridSize="10" guides="1" tooltips="1" connect="1" arrows="1" fold="1" page="1" pageScale="1" pageWidth="850" pageHeight="1100" math="0" shadow="0">
      <root>
        <mxCell id="0" />
        <mxCell id="1" parent="0" />
        <mxCell id="hAYk6wuo29nTpEUGU-P6-20" value="" style="rounded=0;whiteSpace=wrap;html=1;dashed=1;" vertex="1" parent="1">
          <mxGeometry x="90" y="80" width="700" height="290" as="geometry" />
        </mxCell>
        <mxCell id="oRLY293_5cov37p5jNfm-1" value="State transition &lt;br&gt;combinational logic" style="ellipse;shape=cloud;whiteSpace=wrap;html=1;" parent="1" vertex="1">
          <mxGeometry x="90" y="160" width="180" height="110" as="geometry" />
        </mxCell>
        <mxCell id="hAYk6wuo29nTpEUGU-P6-12" style="edgeStyle=orthogonalEdgeStyle;rounded=0;orthogonalLoop=1;jettySize=auto;html=1;exitX=0.875;exitY=0.5;exitDx=0;exitDy=0;exitPerimeter=0;entryX=0;entryY=0.5;entryDx=0;entryDy=0;" edge="1" parent="1" source="oRLY293_5cov37p5jNfm-6" target="hAYk6wuo29nTpEUGU-P6-5">
          <mxGeometry relative="1" as="geometry" />
        </mxCell>
        <mxCell id="hAYk6wuo29nTpEUGU-P6-32" value="/" style="edgeLabel;html=1;align=center;verticalAlign=middle;resizable=0;points=[];" vertex="1" connectable="0" parent="hAYk6wuo29nTpEUGU-P6-12">
          <mxGeometry x="-0.8232" relative="1" as="geometry">
            <mxPoint x="27" as="offset" />
          </mxGeometry>
        </mxCell>
        <mxCell id="hAYk6wuo29nTpEUGU-P6-33" value="16" style="edgeLabel;html=1;align=center;verticalAlign=middle;resizable=0;points=[];" vertex="1" connectable="0" parent="hAYk6wuo29nTpEUGU-P6-12">
          <mxGeometry x="-0.8439" relative="1" as="geometry">
            <mxPoint x="28" y="15" as="offset" />
          </mxGeometry>
        </mxCell>
        <mxCell id="oRLY293_5cov37p5jNfm-6" value="Output update&lt;br&gt;combinational logic" style="ellipse;shape=cloud;whiteSpace=wrap;html=1;" parent="1" vertex="1">
          <mxGeometry x="450" y="170.06" width="180" height="110" as="geometry" />
        </mxCell>
        <mxCell id="oRLY293_5cov37p5jNfm-13" value="" style="endArrow=classic;html=1;exitX=0.933;exitY=0.572;exitDx=0;exitDy=0;exitPerimeter=0;entryX=0.004;entryY=0.44;entryDx=0;entryDy=0;entryPerimeter=0;" parent="1" source="oRLY293_5cov37p5jNfm-1" target="hAYk6wuo29nTpEUGU-P6-2" edge="1">
          <mxGeometry width="50" height="50" relative="1" as="geometry">
            <mxPoint x="310" y="234.82999999999998" as="sourcePoint" />
            <mxPoint x="340" y="223" as="targetPoint" />
          </mxGeometry>
        </mxCell>
        <mxCell id="oRLY293_5cov37p5jNfm-14" value="/" style="edgeLabel;html=1;align=center;verticalAlign=middle;resizable=0;points=[];" parent="oRLY293_5cov37p5jNfm-13" vertex="1" connectable="0">
          <mxGeometry x="-0.1057" relative="1" as="geometry">
            <mxPoint x="7" as="offset" />
          </mxGeometry>
        </mxCell>
        <mxCell id="oRLY293_5cov37p5jNfm-16" value="next_state" style="edgeLabel;html=1;align=center;verticalAlign=middle;resizable=0;points=[];" parent="oRLY293_5cov37p5jNfm-13" vertex="1" connectable="0">
          <mxGeometry x="0.1394" y="-2" relative="1" as="geometry">
            <mxPoint x="-4" y="8" as="offset" />
          </mxGeometry>
        </mxCell>
        <mxCell id="oRLY293_5cov37p5jNfm-17" value="4" style="edgeLabel;html=1;align=center;verticalAlign=middle;resizable=0;points=[];" parent="oRLY293_5cov37p5jNfm-13" vertex="1" connectable="0">
          <mxGeometry x="0.2978" relative="1" as="geometry">
            <mxPoint x="-14" y="-10" as="offset" />
          </mxGeometry>
        </mxCell>
        <mxCell id="oRLY293_5cov37p5jNfm-22" value="" style="endArrow=classic;html=1;entryX=0;entryY=0.5;entryDx=0;entryDy=0;" parent="1" target="hAYk6wuo29nTpEUGU-P6-7" edge="1">
          <mxGeometry width="50" height="50" relative="1" as="geometry">
            <mxPoint x="60" y="310" as="sourcePoint" />
            <mxPoint x="675.5" y="320.0000000000001" as="targetPoint" />
            <Array as="points">
              <mxPoint x="330" y="310" />
              <mxPoint x="630" y="310" />
              <mxPoint x="630" y="260" />
            </Array>
          </mxGeometry>
        </mxCell>
        <mxCell id="oRLY293_5cov37p5jNfm-36" value="clk" style="edgeLabel;html=1;align=center;verticalAlign=middle;resizable=0;points=[];" parent="oRLY293_5cov37p5jNfm-22" vertex="1" connectable="0">
          <mxGeometry x="-0.9317" relative="1" as="geometry">
            <mxPoint x="-11" y="-15" as="offset" />
          </mxGeometry>
        </mxCell>
        <mxCell id="oRLY293_5cov37p5jNfm-34" value="" style="endArrow=classic;html=1;entryX=0.089;entryY=0.492;entryDx=0;entryDy=0;entryPerimeter=0;" parent="1" edge="1" target="oRLY293_5cov37p5jNfm-1">
          <mxGeometry width="50" height="50" relative="1" as="geometry">
            <mxPoint x="60" y="214" as="sourcePoint" />
            <mxPoint x="110" y="214" as="targetPoint" />
          </mxGeometry>
        </mxCell>
        <mxCell id="oRLY293_5cov37p5jNfm-35" value="in_flick" style="edgeLabel;html=1;align=center;verticalAlign=middle;resizable=0;points=[];" parent="oRLY293_5cov37p5jNfm-34" vertex="1" connectable="0">
          <mxGeometry x="-0.7758" y="-1" relative="1" as="geometry">
            <mxPoint x="-1" y="-11" as="offset" />
          </mxGeometry>
        </mxCell>
        <mxCell id="hAYk6wuo29nTpEUGU-P6-4" style="edgeStyle=orthogonalEdgeStyle;rounded=0;orthogonalLoop=1;jettySize=auto;html=1;exitX=1;exitY=0.5;exitDx=0;exitDy=0;entryX=0.16;entryY=0.55;entryDx=0;entryDy=0;entryPerimeter=0;" edge="1" parent="1" source="hAYk6wuo29nTpEUGU-P6-2" target="oRLY293_5cov37p5jNfm-6">
          <mxGeometry relative="1" as="geometry" />
        </mxCell>
        <mxCell id="hAYk6wuo29nTpEUGU-P6-34" value="/" style="edgeLabel;html=1;align=center;verticalAlign=middle;resizable=0;points=[];" vertex="1" connectable="0" parent="hAYk6wuo29nTpEUGU-P6-4">
          <mxGeometry x="-0.8152" y="1" relative="1" as="geometry">
            <mxPoint x="22" y="1" as="offset" />
          </mxGeometry>
        </mxCell>
        <mxCell id="hAYk6wuo29nTpEUGU-P6-35" value="4" style="edgeLabel;html=1;align=center;verticalAlign=middle;resizable=0;points=[];" vertex="1" connectable="0" parent="hAYk6wuo29nTpEUGU-P6-4">
          <mxGeometry x="-0.9088" relative="1" as="geometry">
            <mxPoint x="26" y="-10" as="offset" />
          </mxGeometry>
        </mxCell>
        <mxCell id="hAYk6wuo29nTpEUGU-P6-2" value="DFF" style="rounded=0;whiteSpace=wrap;html=1;" vertex="1" parent="1">
          <mxGeometry x="320" y="174.94" width="75" height="110" as="geometry" />
        </mxCell>
        <mxCell id="hAYk6wuo29nTpEUGU-P6-5" value="DFF" style="rounded=0;whiteSpace=wrap;html=1;" vertex="1" parent="1">
          <mxGeometry x="670" y="170" width="75" height="110" as="geometry" />
        </mxCell>
        <mxCell id="hAYk6wuo29nTpEUGU-P6-6" value="" style="triangle;whiteSpace=wrap;html=1;" vertex="1" parent="1">
          <mxGeometry x="320" y="250" width="20" height="20" as="geometry" />
        </mxCell>
        <mxCell id="hAYk6wuo29nTpEUGU-P6-7" value="" style="triangle;whiteSpace=wrap;html=1;" vertex="1" parent="1">
          <mxGeometry x="670" y="250" width="20" height="20" as="geometry" />
        </mxCell>
        <mxCell id="hAYk6wuo29nTpEUGU-P6-8" value="" style="ellipse;whiteSpace=wrap;html=1;aspect=fixed;" vertex="1" parent="1">
          <mxGeometry x="362.5" y="284.94" width="10" height="10" as="geometry" />
        </mxCell>
        <mxCell id="hAYk6wuo29nTpEUGU-P6-9" value="" style="ellipse;whiteSpace=wrap;html=1;aspect=fixed;" vertex="1" parent="1">
          <mxGeometry x="702.5" y="280.06" width="10" height="10" as="geometry" />
        </mxCell>
        <mxCell id="hAYk6wuo29nTpEUGU-P6-13" value="" style="endArrow=classic;html=1;entryX=0;entryY=0.5;entryDx=0;entryDy=0;" edge="1" parent="1" target="hAYk6wuo29nTpEUGU-P6-6">
          <mxGeometry width="50" height="50" relative="1" as="geometry">
            <mxPoint x="300" y="310" as="sourcePoint" />
            <mxPoint x="360" y="220" as="targetPoint" />
            <Array as="points">
              <mxPoint x="300" y="260" />
            </Array>
          </mxGeometry>
        </mxCell>
        <mxCell id="hAYk6wuo29nTpEUGU-P6-14" value="" style="endArrow=classic;html=1;entryX=0.625;entryY=0.2;entryDx=0;entryDy=0;entryPerimeter=0;" edge="1" parent="1" target="oRLY293_5cov37p5jNfm-1">
          <mxGeometry width="50" height="50" relative="1" as="geometry">
            <mxPoint x="440" y="230" as="sourcePoint" />
            <mxPoint x="430" y="170" as="targetPoint" />
            <Array as="points">
              <mxPoint x="440" y="190" />
              <mxPoint x="440" y="150" />
              <mxPoint x="203" y="150" />
            </Array>
          </mxGeometry>
        </mxCell>
        <mxCell id="hAYk6wuo29nTpEUGU-P6-15" value="" style="endArrow=classic;html=1;exitX=1;exitY=0.362;exitDx=0;exitDy=0;exitPerimeter=0;" edge="1" parent="1" source="hAYk6wuo29nTpEUGU-P6-5">
          <mxGeometry width="50" height="50" relative="1" as="geometry">
            <mxPoint x="410" y="270" as="sourcePoint" />
            <mxPoint x="840" y="210" as="targetPoint" />
            <Array as="points">
              <mxPoint x="750" y="210" />
            </Array>
          </mxGeometry>
        </mxCell>
        <mxCell id="hAYk6wuo29nTpEUGU-P6-16" value="" style="endArrow=classic;html=1;entryX=0.4;entryY=0.1;entryDx=0;entryDy=0;entryPerimeter=0;" edge="1" parent="1" target="oRLY293_5cov37p5jNfm-1">
          <mxGeometry width="50" height="50" relative="1" as="geometry">
            <mxPoint x="750" y="210" as="sourcePoint" />
            <mxPoint x="182" y="171" as="targetPoint" />
            <Array as="points">
              <mxPoint x="750" y="130" />
              <mxPoint x="378" y="130" />
              <mxPoint x="162" y="130" />
            </Array>
          </mxGeometry>
        </mxCell>
        <mxCell id="hAYk6wuo29nTpEUGU-P6-17" value="" style="endArrow=classic;html=1;entryX=0.5;entryY=1;entryDx=0;entryDy=0;" edge="1" parent="1" target="hAYk6wuo29nTpEUGU-P6-9">
          <mxGeometry width="50" height="50" relative="1" as="geometry">
            <mxPoint x="60" y="340" as="sourcePoint" />
            <mxPoint x="659.9999999999998" y="310" as="targetPoint" />
            <Array as="points">
              <mxPoint x="330" y="340" />
              <mxPoint x="630" y="340" />
              <mxPoint x="708" y="340" />
            </Array>
          </mxGeometry>
        </mxCell>
        <mxCell id="hAYk6wuo29nTpEUGU-P6-18" value="rst_n" style="edgeLabel;html=1;align=center;verticalAlign=middle;resizable=0;points=[];" vertex="1" connectable="0" parent="hAYk6wuo29nTpEUGU-P6-17">
          <mxGeometry x="-0.9317" relative="1" as="geometry">
            <mxPoint x="-11" y="-15" as="offset" />
          </mxGeometry>
        </mxCell>
        <mxCell id="hAYk6wuo29nTpEUGU-P6-19" value="" style="endArrow=classic;html=1;entryX=0.5;entryY=1;entryDx=0;entryDy=0;" edge="1" parent="1" target="hAYk6wuo29nTpEUGU-P6-8">
          <mxGeometry width="50" height="50" relative="1" as="geometry">
            <mxPoint x="368" y="340" as="sourcePoint" />
            <mxPoint x="560" y="190" as="targetPoint" />
          </mxGeometry>
        </mxCell>
        <mxCell id="hAYk6wuo29nTpEUGU-P6-21" value="bound_flasher" style="text;html=1;strokeColor=none;fillColor=none;align=center;verticalAlign=middle;whiteSpace=wrap;rounded=0;dashed=1;" vertex="1" parent="1">
          <mxGeometry x="710" y="80" width="40" height="20" as="geometry" />
        </mxCell>
        <mxCell id="hAYk6wuo29nTpEUGU-P6-22" value="current_state" style="text;html=1;strokeColor=none;fillColor=none;align=center;verticalAlign=middle;whiteSpace=wrap;rounded=0;dashed=1;" vertex="1" parent="1">
          <mxGeometry x="410" y="230" width="40" height="20" as="geometry" />
        </mxCell>
        <mxCell id="hAYk6wuo29nTpEUGU-P6-25" value="next_led" style="text;html=1;strokeColor=none;fillColor=none;align=center;verticalAlign=middle;whiteSpace=wrap;rounded=0;dashed=1;" vertex="1" parent="1">
          <mxGeometry x="620" y="202" width="40" height="20" as="geometry" />
        </mxCell>
        <mxCell id="hAYk6wuo29nTpEUGU-P6-29" value="out_led" style="edgeLabel;html=1;align=center;verticalAlign=middle;resizable=0;points=[];" vertex="1" connectable="0" parent="1">
          <mxGeometry x="810.2410467633661" y="225" as="geometry" />
        </mxCell>
        <mxCell id="hAYk6wuo29nTpEUGU-P6-30" value="16" style="edgeLabel;html=1;align=center;verticalAlign=middle;resizable=0;points=[];" vertex="1" connectable="0" parent="1">
          <mxGeometry x="810.0029515252709" y="200" as="geometry" />
        </mxCell>
        <mxCell id="hAYk6wuo29nTpEUGU-P6-31" value="/" style="edgeLabel;html=1;align=center;verticalAlign=middle;resizable=0;points=[];" vertex="1" connectable="0" parent="1">
          <mxGeometry x="812.193427715747" y="212" as="geometry" />
        </mxCell>
      </root>
    </mxGraphModel>
  </diagram>
</mxfile>
